<svg width="72" height="176" viewBox="0 0 72 176" fill="none" xmlns="http://www.w3.org/2000/svg">
<path opacity="0.3" d="M69.7265 132.871C71.6464 128.932 72.4162 124.441 71.7823 119.874C70.9536 113.907 67.5529 108.67 62.9704 104.855C62.0331 104.075 61.0731 103.351 60.095 102.653C57.2876 99.3973 53.9521 96.5106 50.5338 93.8744C47.2386 91.3327 41.7197 87.9913 40.4989 83.7354C39.8745 81.5567 40.6293 79.3273 42.1621 77.945C44.3995 77.6435 46.6373 77.3524 48.8507 76.936C50.6701 76.9975 52.283 76.5373 53.6433 75.7246C54.8496 75.3286 56.045 74.8753 57.2151 74.2894C64.2066 70.7885 71.0532 63.3178 70.4691 54.3763C69.98 46.9106 65.5288 42.0587 59.4837 38.5142C52.5937 34.4724 44.8523 32.2725 37.6145 28.9619C35.3205 27.9126 33.4046 26.6325 33.151 23.8926C33.0374 22.6769 33.1601 21.5812 33.5355 20.6018C33.9389 20.5843 34.3424 20.5753 34.7454 20.597C39.543 20.7121 44.1305 16.3052 43.9123 11.4461C43.7415 7.62503 41.5282 4.42766 38.2407 3.03784C36.0183 0.532403 32.6434 -0.439149 28.9693 0.182237C25.6592 0.741547 22.3491 1.30146 19.039 1.86136C15.9186 2.38933 13.5278 5.207 12.6561 8.31753C11.8673 9.72424 11.1518 11.2002 10.5604 12.798C8.69031 17.8487 9.3487 23.0699 10.0642 28.0814C10.9725 34.4465 13.3018 40.3663 18.5001 44.8558C22.6566 48.4461 27.4528 50.6308 32.5429 52.2648C34.097 52.7639 35.546 53.2376 37.7132 54.784C31.7926 54.7076 27.0864 56.2395 22.3156 57.6815C19.9627 58.3925 18.0093 59.6003 15.9227 60.6857C11.3764 63.0489 6.23783 67.994 3.73828 72.4818C-4.47311 87.2287 1.7957 101.08 13.3013 109.607C20.3304 114.818 28.4503 116.793 36.7451 118.566C39.8378 119.228 43.0664 119.534 45.8983 121.226C46.688 121.698 47.2242 122.138 47.0901 123.055C47.0815 123.111 47.0634 123.15 47.0521 123.199C45.9535 123.67 44.649 123.981 43.4603 124.235C38.2058 124.61 32.9296 124.83 27.7222 125.547C17.1412 127.003 7.97438 132.371 4.57689 143.162C1.42846 153.162 4.27216 161.47 12.8698 168.009C13.5205 168.504 14.1653 169.023 14.8432 169.503C18.9321 170.66 22.9314 172.1 26.9198 173.579C28.77 173.822 30.6048 173.94 32.36 173.909C32.9233 174.25 33.4748 174.606 34.0698 174.909C44.5403 180.233 53.799 164.632 43.3236 159.106C41.3556 158.068 39.7925 156.789 40.2729 154.307C40.8218 151.474 40.0751 148.887 38.6175 146.872C38.7728 146.623 38.9666 146.425 39.1427 146.205C42.4315 146.151 45.7326 146.432 49.0014 146.045C53.7021 145.489 58.4875 144.307 62.3953 141.519C65.5786 139.247 68.0782 136.263 69.7265 132.871Z" fill="#FFA852"/>
</svg>
