<svg width="149" height="61" viewBox="0 0 149 61" fill="none" xmlns="http://www.w3.org/2000/svg">
<path opacity="0.3" d="M112.487 1.9262C109.153 0.29958 105.351 -0.352619 101.484 0.184475C96.4329 0.886528 91.9992 3.76767 88.7697 7.65008C88.1088 8.44421 87.4958 9.25751 86.9053 10.0862C84.1488 12.4647 81.705 15.2906 79.4732 18.1866C77.3214 20.9784 74.4926 25.6541 70.8897 26.6884C69.0451 27.2175 67.1577 26.5779 65.9875 25.2793C65.7322 23.3838 65.4858 21.4878 65.1334 19.6126C65.1854 18.0712 64.7958 16.7047 64.1078 15.5522C63.7725 14.5302 63.3887 13.5174 62.8927 12.5261C59.9289 6.60273 53.6043 0.802139 46.0345 1.29703C39.7141 1.71136 35.6065 5.48251 32.6058 10.6041C29.184 16.4415 27.3216 23.0001 24.5189 29.1322C23.6306 31.0757 22.5468 32.6989 20.2272 32.9137C19.1981 33.01 18.2704 32.906 17.4413 32.588C17.4265 32.2462 17.4189 31.9044 17.4372 31.5629C17.5347 27.4983 13.8038 23.6117 9.69021 23.7966C6.45528 23.9412 3.74841 25.8164 2.57181 28.6016C0.450727 30.4845 -0.37178 33.3438 0.15428 36.4566C0.627787 39.261 1.10181 42.0654 1.57581 44.8697C2.02279 47.5134 4.4082 49.539 7.04155 50.2775C8.23245 50.9458 9.48203 51.5519 10.8347 52.053C15.1105 53.6374 19.5308 53.0796 23.7734 52.4734C29.1621 51.7038 34.1737 49.7304 37.9745 45.3263C41.014 41.8049 42.8635 37.7414 44.2469 33.4289C44.6694 32.1123 45.0705 30.8846 46.3796 29.0486C46.315 34.0646 47.6119 38.0518 48.8326 42.0938C49.4346 44.0871 50.4571 45.7421 51.3759 47.5099C53.3766 51.3616 57.5631 55.7152 61.3624 57.8328C73.847 64.7897 85.5736 59.4786 92.7925 49.7308C97.2036 43.7756 98.8756 36.8962 100.377 29.8688C100.937 27.2485 101.197 24.5132 102.629 22.1139C103.028 21.4449 103.401 20.9906 104.178 21.1042C104.224 21.1115 104.258 21.1269 104.299 21.1364C104.698 22.0671 104.961 23.1724 105.176 24.1795C105.494 28.6312 105.68 33.1013 106.287 37.5131C107.52 46.4776 112.064 54.2439 121.2 57.1224C129.666 59.7898 136.699 57.3805 142.235 50.0964C142.654 49.5451 143.093 48.9988 143.499 48.4245C144.479 44.9603 145.699 41.572 146.95 38.1929C147.156 36.6254 147.256 35.0709 147.23 33.5839C147.519 33.1067 147.82 32.6394 148.076 32.1353C152.584 23.2645 139.376 15.4203 134.697 24.2953C133.819 25.9626 132.736 27.2869 130.635 26.8799C128.237 26.4149 126.046 27.0475 124.341 28.2824C124.13 28.1508 123.962 27.9867 123.776 27.8374C123.73 25.0511 123.968 22.2544 123.64 19.4849C123.169 15.5024 122.169 11.4481 119.808 8.13728C117.885 5.44032 115.359 3.32264 112.487 1.9262Z" fill="#FFA852"/>
</svg>
